<svg xmlns="http://www.w3.org/2000/svg" viewBox="0 0 20 21" stroke-width="2" stroke-linecap="round" stroke-linejoin="round" width="24" height="24" fill="none" stroke="currentColor"><path d="M3 12h14a2 2 0 0 1 2 2v6h0H1h0v-6a2 2 0 0 1 2-2m11.31-4.5a37.7 37.7 0 0 0-8.62 0A2 2 0 0 0 4 9.5V12h12V9.47a2 2 0 0 0-1.69-1.97M6 5v2.46M14 5v2.46M10 5v2.25M14 1" stroke-linecap="round" stroke-linejoin="round" stroke-width="2"/><path d="M1 15.28c1.8 0 1.8 1.44 3.6 1.44s1.8-1.44 3.59-1.44 1.8 1.44 3.6 1.44 1.8-1.44 3.61-1.44 1.8 1.44 3.6 1.44" stroke-linecap="round" stroke-linejoin="round" stroke-width="2"/></svg>