<svg xmlns="http://www.w3.org/2000/svg" width="248.01" height="45.87" viewBox="0 0 248.01 45.87"><g id="b81bd633-8d25-4b59-85b8-c36ebf42e85d" data-name="Layer 2"><g id="a91322d5-b522-48fe-b4e0-2c5d1719bea8" data-name="Layer 2"><path d="M26.77,23.13a14.13,14.13,0,0,1,3.26-5,13.51,13.51,0,0,1,4.94-3,18.67,18.67,0,0,1,6.3-1,21.08,21.08,0,0,1,5.81.75,12.57,12.57,0,0,1,4.49,2.26,10,10,0,0,1,2.89,3.8,12.88,12.88,0,0,1,1,5.36H48.8a5.51,5.51,0,0,0-2.08-4.67A8.57,8.57,0,0,0,41.33,20a10.05,10.05,0,0,0-3.5.6A7.75,7.75,0,0,0,35,22.4a8.74,8.74,0,0,0-1.9,3.14A13.12,13.12,0,0,0,32.41,30a12.9,12.9,0,0,0,.69,4.42A8.66,8.66,0,0,0,35,37.56a7.82,7.82,0,0,0,2.71,1.81,8.65,8.65,0,0,0,3.16.6,10.88,10.88,0,0,0,3.77-.57,6.87,6.87,0,0,0,2.47-1.51,5.43,5.43,0,0,0,1.33-2.08,7.24,7.24,0,0,0,.39-2.35h6.69a12.83,12.83,0,0,1-1.12,5.6,10.27,10.27,0,0,1-3.07,3.86,13.22,13.22,0,0,1-4.58,2.23,21.23,21.23,0,0,1-5.63.72,19.06,19.06,0,0,1-6.15-1A13.09,13.09,0,0,1,30,42a13.83,13.83,0,0,1-3.26-5,19.11,19.11,0,0,1-1.17-7A18.55,18.55,0,0,1,26.77,23.13Z"/><path d="M60,23.22a14,14,0,0,1,3.34-5,14.68,14.68,0,0,1,5.06-3.11,19.27,19.27,0,0,1,12.72,0,14.78,14.78,0,0,1,5.06,3.11,14,14,0,0,1,3.34,5,17.37,17.37,0,0,1,1.21,6.68,18.13,18.13,0,0,1-1.21,6.9,14,14,0,0,1-3.34,5,14.17,14.17,0,0,1-5.06,3,20.34,20.34,0,0,1-12.72,0A13.61,13.61,0,0,1,60,36.8a18.13,18.13,0,0,1-1.21-6.9A17.37,17.37,0,0,1,60,23.22Zm23.17,2.32a8.78,8.78,0,0,0-2-3.11,8,8,0,0,0-2.93-1.77,10.64,10.64,0,0,0-6.93,0,8,8,0,0,0-2.92,1.77,8.78,8.78,0,0,0-2,3.11A12.17,12.17,0,0,0,65.55,30a11.67,11.67,0,0,0,.75,4.42,8.88,8.88,0,0,0,2,3,8,8,0,0,0,2.92,1.77,10.64,10.64,0,0,0,6.93,0A8,8,0,0,0,81.1,37.5a8.88,8.88,0,0,0,2-3A11.67,11.67,0,0,0,83.87,30,12.17,12.17,0,0,0,83.12,25.54Z"/><path d="M102.25,19.66h.9a8.94,8.94,0,0,1,3.92-4.28,12.31,12.31,0,0,1,5.78-1.32q5,0,7.69,3a11.09,11.09,0,0,1,2.74,7.83V45h-6.81v-18q0-3.8-1.6-5.48A6.44,6.44,0,0,0,110,19.9a7.18,7.18,0,0,0-5.6,2.32q-2.11,2.33-2.11,6.66V45H95.38V14.9h6.45Z"/><path d="M133.73,45.36a8.76,8.76,0,0,1-3-1.54,7.14,7.14,0,0,1-2.05-2.62,8.76,8.76,0,0,1-.75-3.76,10.64,10.64,0,0,1,.69-3.56,7.82,7.82,0,0,1,2.92-3.55,19.62,19.62,0,0,1,6.39-2.75,44.21,44.21,0,0,1,11-1.11v-.9a6.72,6.72,0,0,0-.36-2.2,4.65,4.65,0,0,0-1.21-1.87,6,6,0,0,0-2.2-1.3,9.87,9.87,0,0,0-3.28-.48q-3.61,0-5.39,1.66a5.46,5.46,0,0,0-1.78,4.19H128.1a11,11,0,0,1,1.14-5.19,10.59,10.59,0,0,1,3-3.58,12.57,12.57,0,0,1,4.34-2.08,19.12,19.12,0,0,1,5-.66,20.12,20.12,0,0,1,6.54.93,11.27,11.27,0,0,1,4.33,2.59,9.85,9.85,0,0,1,2.41,3.89,14.76,14.76,0,0,1,.76,4.82v7.89c0,1.49,0,2.78.09,3.86s.15,2.05.27,2.89a21.88,21.88,0,0,0,.42,2.23c.16.64.32,1.27.48,1.87h-6.81a10.67,10.67,0,0,1-.69-2.65c-.14-1-.23-1.91-.27-2.71h-1a11.17,11.17,0,0,1-4.13,4.42,12.25,12.25,0,0,1-6.72,1.78A12.78,12.78,0,0,1,133.73,45.36Zm9-5.69a11.26,11.26,0,0,0,3.2-1.9,10,10,0,0,0,2.16-2.62,6.36,6.36,0,0,0,.88-2.9V30.93a43.53,43.53,0,0,0-7,.57,16.87,16.87,0,0,0-4.4,1.33,5.42,5.42,0,0,0-2.29,1.87,4,4,0,0,0-.66,2.13,3.15,3.15,0,0,0,1.17,2.69,5.11,5.11,0,0,0,3.1.87A10.54,10.54,0,0,0,142.71,39.67Z"/><path d="M159.07,21.11V14.9h6.39V4.05h6.75V14.9h11.87v6.21H172.21V34.79a4.29,4.29,0,0,0,.93,3.1,4.82,4.82,0,0,0,3.41.93h7.53V45h-9a12.84,12.84,0,0,1-4.49-.69,7.74,7.74,0,0,1-3-1.93,7.08,7.08,0,0,1-1.63-2.92,13.2,13.2,0,0,1-.48-3.62V21.11Z"/><path d="M196.13,44.91A12.83,12.83,0,0,1,191.19,42,13.56,13.56,0,0,1,188,37a19.34,19.34,0,0,1-1.15-7,18.53,18.53,0,0,1,1.15-6.8,13.9,13.9,0,0,1,3.19-5,13.64,13.64,0,0,1,4.91-3.07,18.18,18.18,0,0,1,6.3-1,17.11,17.11,0,0,1,5.81,1,13.43,13.43,0,0,1,4.64,2.77,12.44,12.44,0,0,1,3.05,4.43A15.49,15.49,0,0,1,217,28.16c0,.64,0,1.29-.09,2s-.13,1.27-.21,1.83H193.54a9,9,0,0,0,.78,3.62,8,8,0,0,0,1.9,2.53A7.63,7.63,0,0,0,199,39.61a11.51,11.51,0,0,0,3.38.48,10.94,10.94,0,0,0,3.22-.42,7.93,7.93,0,0,0,2.26-1.09,5.29,5.29,0,0,0,1.42-1.5,8.9,8.9,0,0,0,.81-1.75h6.51a11.81,11.81,0,0,1-4.64,8,16,16,0,0,1-9.46,2.59A20,20,0,0,1,196.13,44.91Zm12.2-23.08a8.1,8.1,0,0,0-6.05-2.11,12.13,12.13,0,0,0-3.26.42,7.83,7.83,0,0,0-2.68,1.33,6.8,6.8,0,0,0-1.9,2.32,9.31,9.31,0,0,0-.9,3.4h17A7.73,7.73,0,0,0,208.33,21.83Z"/><path d="M227.34,33.7v.6a6.81,6.81,0,0,0,.4,2.41A4.5,4.5,0,0,0,229,38.58a5.94,5.94,0,0,0,2.26,1.21,12,12,0,0,0,3.44.42,11.32,11.32,0,0,0,5-.81,2.87,2.87,0,0,0,1.53-2.75,3.19,3.19,0,0,0-.81-2.29,5.46,5.46,0,0,0-2.8-1.26l-9-1.87a12.35,12.35,0,0,1-3.53-1.2,7.19,7.19,0,0,1-2.23-1.87,6.8,6.8,0,0,1-1.14-2.38,11.12,11.12,0,0,1-.33-2.74,7.61,7.61,0,0,1,1-3.89,8.62,8.62,0,0,1,2.65-2.8,12.19,12.19,0,0,1,4-1.72,21.32,21.32,0,0,1,5.09-.57,21,21,0,0,1,6,.78,12.36,12.36,0,0,1,4.34,2.23,9.37,9.37,0,0,1,2.62,3.43,10.9,10.9,0,0,1,.87,4.4v.67H241.2v-.43A4.94,4.94,0,0,0,239.42,21,8.51,8.51,0,0,0,234,19.6a9.66,9.66,0,0,0-4.64.84A2.67,2.67,0,0,0,228,22.85a3.06,3.06,0,0,0,.69,2.11,5.23,5.23,0,0,0,2.92,1.21l8.86,1.75a13.8,13.8,0,0,1,3.77,1.29,7.18,7.18,0,0,1,2.32,2,7,7,0,0,1,1.17,2.5,11.79,11.79,0,0,1,.33,2.8,8.81,8.81,0,0,1-1,4.25,7.9,7.9,0,0,1-2.74,2.92,12.82,12.82,0,0,1-4.25,1.69,25.8,25.8,0,0,1-5.49.54A21.82,21.82,0,0,1,228,45a11.74,11.74,0,0,1-4.37-2.38,8.85,8.85,0,0,1-2.41-3.56,12.43,12.43,0,0,1-.76-4.39v-1Z"/><polygon points="16.83 39.05 16.83 15.1 0 15.1 0 21.31 10.2 21.31 10.2 39.05 0 39.05 0 45.26 23.65 45.26 23.65 39.05 16.83 39.05"/><path d="M16.12,3.33h.81V0h-6a6,6,0,0,0-6,6V9h-3v3H16.93V8.67h-.81a2.23,2.23,0,0,1-2.23-2.23V5.56A2.23,2.23,0,0,1,16.12,3.33Z"/></g></g></svg>