<svg id="a20ec805-0ac6-416c-8593-4ec7d84df9ca" data-name="Layer 5" xmlns="http://www.w3.org/2000/svg" width="20" height="21" viewBox="0 0 20 21"><path d="M3,12H17a2,2,0,0,1,2,2v6a0,0,0,0,1,0,0H1a0,0,0,0,1,0,0V14a2,2,0,0,1,2-2Z" fill="none" stroke="#000" stroke-linecap="round" stroke-linejoin="round" stroke-width="2"/><path d="M16.31,9.5a37.65,37.65,0,0,0-8.62,0,2,2,0,0,0-1.69,2V14H18V11.47A2,2,0,0,0,16.31,9.5Z" transform="translate(-2 -2)" fill="none" stroke="#000" stroke-linecap="round" stroke-linejoin="round" stroke-width="2"/><line x1="6" y1="5" x2="6" y2="7.46" fill="none" stroke="#000" stroke-linecap="round" stroke-linejoin="round" stroke-width="2"/><line x1="14" y1="5" x2="14" y2="7.46" fill="none" stroke="#000" stroke-linecap="round" stroke-linejoin="round" stroke-width="2"/><line x1="10" y1="5" x2="10" y2="7.25" fill="none" stroke="#000" stroke-linecap="round" stroke-linejoin="round" stroke-width="2"/><path d="M3,17.28c1.8,0,1.8,1.44,3.6,1.44s1.8-1.44,3.59-1.44,1.8,1.44,3.6,1.44,1.8-1.44,3.61-1.44,1.8,1.44,3.6,1.44" transform="translate(-2 -2)" fill="none" stroke="#000" stroke-linecap="round" stroke-linejoin="round" stroke-width="2"/><line x1="9.95" y1="1" x2="10.05" y2="1" fill="none" stroke="#000" stroke-linecap="round" stroke-linejoin="round" stroke-width="2"/><line x1="5.95" y1="1" x2="6.05" y2="1" fill="none" stroke="#000" stroke-linecap="round" stroke-linejoin="round" stroke-width="2"/><line x1="13.95" y1="1" x2="14.05" y2="1" fill="none" stroke="#000" stroke-linecap="round" stroke-linejoin="round" stroke-width="2"/></svg>